<svg width="400" height="400" viewBox="0 0 400 400" fill="none" xmlns="http://www.w3.org/2000/svg">
<rect width="400" height="400" fill="white"></rect>
<path d="M295.707 171.828C302.3 169.9 309.274 169.665 315.983 171.143C322.691 172.622 328.918 175.767 334.084 180.289C339.251 184.81 343.191 190.56 345.539 197.007C347.887 203.454 348.567 210.388 347.517 217.167C346.467 223.945 343.719 230.351 339.53 235.787C335.34 241.223 329.844 245.516 323.551 248.266C317.257 251.017 310.37 252.137 303.528 251.523L303.739 251.722C296.735 251.132 289.689 252.076 283.088 254.486C276.488 256.895 270.494 260.715 265.525 265.676C260.556 270.638 256.73 276.622 254.317 283.212C251.903 289.802 250.96 296.839 251.551 303.83L251.339 303.631C252.126 311.994 250.311 320.395 246.141 327.69C241.971 334.986 235.649 340.819 228.036 344.395C220.424 347.971 211.892 349.116 203.604 347.673C195.317 346.231 187.676 342.271 181.725 336.335C175.773 330.398 171.801 322.772 170.348 314.499C168.896 306.224 170.035 297.705 173.61 290.101C177.184 282.497 183.021 276.18 190.323 272.01C197.627 267.839 206.04 266.019 214.416 266.798L214.216 266.598C221.218 267.189 228.266 266.245 234.865 263.835C241.466 261.426 247.46 257.606 252.43 252.645C257.399 247.683 261.223 241.699 263.637 235.109C266.051 228.519 266.996 221.483 266.405 214.491L266.605 214.69C266.03 208.75 266.773 202.757 268.783 197.136C270.794 191.517 274.02 186.409 278.234 182.177H278.267C283.115 177.317 289.114 173.757 295.707 171.828ZM278.847 66.615C286.462 63.0403 294.995 61.8978 303.283 63.3435C311.572 64.7891 319.212 68.7528 325.161 74.6931C331.111 80.6335 335.081 88.2614 336.529 96.5369C337.976 104.813 336.831 113.334 333.251 120.936C329.671 128.539 323.83 134.854 316.523 139.019C309.216 143.185 300.8 145 292.423 144.214L292.634 144.413C285.631 143.823 278.584 144.765 271.984 147.176C265.384 149.584 259.39 153.405 254.42 158.366C249.452 163.328 245.626 169.312 243.212 175.901C240.8 182.492 239.855 189.528 240.447 196.52L240.235 196.32C240.829 202.263 240.095 208.264 238.082 213.888C236.071 219.513 232.831 224.622 228.601 228.844C224.369 233.065 219.251 236.295 213.616 238.3C207.981 240.304 201.97 241.034 196.019 240.435L196.23 240.635C189.227 240.044 182.18 240.988 175.579 243.398C168.98 245.807 162.986 249.627 158.016 254.588C153.047 259.55 149.222 265.534 146.81 272.124C144.396 278.714 143.451 285.75 144.042 292.742L143.831 292.543C144.618 300.907 142.802 309.31 138.629 316.606C134.457 323.902 128.132 329.734 120.518 333.308C112.903 336.883 104.37 338.025 96.0813 336.58C87.7929 335.135 80.153 331.171 74.2034 325.23C68.2538 319.29 64.2841 311.661 62.8362 303.385C61.3883 295.11 62.5324 286.59 66.1126 278.987C69.6926 271.384 75.5345 265.07 82.8411 260.904C90.1479 256.738 98.5645 254.924 106.942 255.71L106.741 255.51C113.744 256.099 120.79 255.154 127.389 252.744C133.988 250.333 139.981 246.514 144.95 241.553C149.919 236.593 153.744 230.608 156.158 224.019C158.572 217.43 159.518 210.394 158.929 203.403L159.129 203.602C158.534 197.659 159.269 191.659 161.281 186.035C163.293 180.41 166.532 175.301 170.763 171.08C174.994 166.858 180.114 163.627 185.748 161.624C191.383 159.619 197.395 158.89 203.346 159.488L203.146 159.277C210.149 159.869 217.196 158.927 223.798 156.518C230.399 154.109 236.394 150.29 241.364 145.329C246.332 140.366 250.158 134.381 252.571 127.79C254.983 121.199 255.926 114.162 255.333 107.17L255.533 107.381C254.746 99.0164 256.563 90.6135 260.736 83.3181C264.908 76.0225 271.232 70.1896 278.847 66.615ZM171.96 56.157C179.571 52.5847 188.102 51.4438 196.387 52.8894C204.672 54.3349 212.31 58.297 218.257 64.2351C224.204 70.1733 228.174 77.7985 229.621 86.071C231.069 94.3437 229.926 102.861 226.348 110.462C222.769 118.062 216.931 124.375 209.628 128.541C202.325 132.706 193.911 134.52 185.537 133.737L185.748 133.937C178.744 133.344 171.694 134.284 165.091 136.692C158.488 139.1 152.493 142.919 147.521 147.881C142.549 152.843 138.721 158.829 136.306 165.421C133.891 172.012 132.947 179.051 133.538 186.045L133.327 185.844C133.907 191.783 133.166 197.778 131.157 203.398C129.149 209.018 125.923 214.128 121.709 218.359H121.731C116.883 223.219 110.885 226.777 104.292 228.707C97.6996 230.635 90.7261 230.872 84.0178 229.394C77.3095 227.916 71.0831 224.771 65.9163 220.25C60.7494 215.73 56.8091 209.98 54.4602 203.534C52.1113 197.089 51.4296 190.155 52.4788 183.376C53.5281 176.598 56.274 170.193 60.4622 164.757C64.6504 159.319 70.1462 155.025 76.4387 152.273C82.7312 149.521 89.618 148.4 96.4602 149.012L96.26 148.812C103.262 149.403 110.31 148.459 116.909 146.05C123.51 143.64 129.504 139.821 134.473 134.859C139.442 129.898 143.266 123.913 145.68 117.323C148.094 110.733 149.039 103.697 148.448 96.7048L148.648 96.905C147.863 88.5439 149.68 80.1443 153.853 72.8523C158.024 65.5602 164.348 59.7294 171.96 56.157Z" fill="url(#paint0_linear_15978_21245)"></path>
<defs>
<linearGradient id="paint0_linear_15978_21245" x1="120.185" y1="119.048" x2="291.173" y2="290.035" gradientUnits="userSpaceOnUse">
<stop stop-color="#407CFF"></stop>
<stop offset="0.50184" stop-color="#CC79FF"></stop>
<stop offset="1" stop-color="#FFA03B"></stop>
</linearGradient>
</defs>
</svg>