<svg width="138" height="24" viewBox="0 0 138 24" fill="none" xmlns="http://www.w3.org/2000/svg">
<path d="M121.196 7.81912C122.612 7.81912 123.708 8.29746 124.484 9.25467C125.266 10.2119 125.657 11.6241 125.657 13.491C125.657 14.7399 125.472 15.7989 125.101 16.6678C124.73 17.5297 124.201 18.1846 123.513 18.6326C122.832 19.0807 122.012 19.3055 121.054 19.3055C120.393 19.3054 119.817 19.2064 119.324 19.0096C118.839 18.8059 118.434 18.5345 118.111 18.1951C117.787 17.8489 117.537 17.4686 117.362 17.0545H117.291C117.311 17.4414 117.329 17.8455 117.342 18.2664C117.356 18.6873 117.362 19.0844 117.362 19.4578V23.9998H116.33V8.03201H117.18L117.301 10.242H117.362C117.544 9.8211 117.801 9.42393 118.131 9.05057C118.461 8.6774 118.879 8.37902 119.385 8.15506C119.891 7.93108 120.494 7.81917 121.196 7.81912ZM133.538 7.81912C134.954 7.81918 136.05 8.29757 136.825 9.25467C137.608 10.2119 137.999 11.6241 137.999 13.491C137.999 14.7399 137.814 15.7989 137.443 16.6678C137.072 17.5297 136.542 18.1846 135.855 18.6326C135.174 19.0806 134.354 19.3054 133.397 19.3055C132.736 19.3055 132.159 19.2064 131.666 19.0096C131.181 18.8059 130.776 18.5345 130.452 18.1951C130.129 17.8489 129.88 17.4685 129.704 17.0545H129.633C129.653 17.4414 129.67 17.8455 129.684 18.2664C129.697 18.6873 129.704 19.0844 129.704 19.4578V23.9998H128.672V8.03201H129.522L129.643 10.242H129.704C129.886 9.82119 130.143 9.42385 130.473 9.05057C130.803 8.67739 131.221 8.37903 131.727 8.15506C132.233 7.93103 132.837 7.81912 133.538 7.81912ZM38.9387 3.99979C39.6738 3.99979 40.4097 4.09486 41.1448 4.28494C41.8865 4.46822 42.5945 4.72283 43.2688 5.04861L42.2571 7.61502C41.7041 7.3503 41.1478 7.11949 40.5881 6.92264C40.0284 6.72577 39.4783 6.62772 38.9387 6.62772C38.3388 6.62776 37.8062 6.74579 37.3411 6.98318C36.8825 7.214 36.494 7.55071 36.177 7.99197C35.8669 8.43319 35.6308 8.96617 35.469 9.59061C35.3072 10.215 35.2268 10.9175 35.2268 11.698C35.2268 12.7503 35.3543 13.6505 35.6106 14.3972C35.8736 15.137 36.2783 15.7037 36.8245 16.0974C37.3707 16.4843 38.0756 16.6775 38.9387 16.6775C39.5389 16.6775 40.1394 16.6101 40.7395 16.4744C41.3464 16.3386 42.0042 16.1454 42.7122 15.8943V18.5418C42.0582 18.8132 41.4143 19.0065 40.7805 19.1219C40.1466 19.2441 39.4348 19.3054 38.6458 19.3055C37.1216 19.3055 35.8667 18.9895 34.8821 18.3582C33.9043 17.7201 33.1793 16.8306 32.7073 15.6902C32.2352 14.543 31.9993 13.2058 31.9993 11.6785C31.9993 10.5517 32.1509 9.51953 32.4543 8.58279C32.7578 7.64595 33.2035 6.83388 33.7903 6.14822C34.377 5.46279 35.102 4.93363 35.9651 4.56033C36.8282 4.18702 37.8194 3.99983 38.9387 3.99979ZM50.4514 7.50272C51.5102 7.50272 52.4479 7.73056 53.2639 8.18533C54.0867 8.64018 54.7312 9.30568 55.1965 10.1814C55.6685 11.057 55.9045 12.126 55.9045 13.3885C55.9045 14.3388 55.776 15.1807 55.5198 15.9138C55.2702 16.647 54.9028 17.269 54.4172 17.7781C53.9385 18.2803 53.358 18.6598 52.677 18.9178C52.0026 19.1757 51.2405 19.3055 50.3909 19.3055C49.5952 19.3054 48.8631 19.1757 48.1956 18.9178C47.5349 18.6598 46.9582 18.2802 46.4661 17.7781C45.9805 17.269 45.603 16.647 45.3333 15.9138C45.0703 15.1807 44.9387 14.3388 44.9387 13.3885C44.9388 12.1261 45.1608 11.057 45.6057 10.1814C46.0508 9.30569 46.6853 8.64018 47.5081 8.18533C48.3307 7.73055 49.3118 7.50278 50.4514 7.50272ZM71.2815 7.71658H74.4485V10.0486H71.2815V15.5379C71.2815 15.9722 71.403 16.2982 71.6458 16.5154C71.8953 16.7259 72.2226 16.8308 72.6272 16.8308C72.9644 16.8308 73.2917 16.7972 73.6086 16.7293C73.9323 16.6614 74.2526 16.5762 74.5696 16.4744V18.7859C74.2391 18.9353 73.8275 19.0581 73.3352 19.1531C72.8497 19.2549 72.3165 19.3055 71.7366 19.3055C71.0624 19.3054 70.4557 19.1964 69.9163 18.9793C69.3835 18.7553 68.9618 18.3719 68.6516 17.8289C68.3481 17.279 68.1966 16.5153 68.1965 15.5379V10.0486H66.719V8.73514L68.4192 7.69705L69.3088 5.29373H71.2815V7.71658ZM81.5295 7.50272C82.5749 7.50272 83.4754 7.70672 84.2307 8.11404C84.9859 8.51452 85.5694 9.0981 85.9807 9.86502C86.3921 10.6321 86.5979 11.5692 86.5979 12.6756V14.1834H79.304C79.3377 15.0589 79.5978 15.7475 80.0833 16.2498C80.5755 16.7453 81.2563 16.9939 82.1262 16.9939C82.8479 16.9939 83.5094 16.9187 84.1096 16.7693C84.7096 16.62 85.3265 16.396 85.9602 16.0974V18.5008C85.4005 18.779 84.814 18.9831 84.2004 19.1121C83.5935 19.2411 82.8546 19.3055 81.9846 19.3055C80.8516 19.3054 79.8467 19.0945 78.97 18.6736C78.1 18.2527 77.4153 17.6109 76.9163 16.7488C76.4241 15.8868 76.178 14.8009 76.178 13.491C76.178 12.1604 76.4008 11.0532 76.8459 10.1707C77.2978 9.28159 77.9244 8.61581 78.7268 8.17459C79.5294 7.72654 80.464 7.50272 81.5295 7.50272ZM64.7659 7.50272C64.921 7.50272 65.0997 7.51361 65.302 7.53397C65.511 7.54754 65.6798 7.56736 65.8079 7.59451L65.5754 10.5066C65.4743 10.4727 65.3287 10.4489 65.1399 10.4353C64.9579 10.415 64.7992 10.4051 64.6643 10.4051C64.2665 10.4051 63.8788 10.4556 63.5012 10.5574C63.1303 10.6592 62.796 10.8256 62.4993 11.0564C62.2025 11.2805 61.9666 11.5796 61.7913 11.9529C61.6227 12.3195 61.5383 12.7711 61.5383 13.3074V19.1013H58.4534V7.71658H60.7903L61.2454 9.63162H61.3967C61.6193 9.24467 61.8963 8.89112 62.2268 8.57205C62.5639 8.24638 62.9447 7.98864 63.3694 7.79861C63.801 7.60174 64.2668 7.50272 64.7659 7.50272ZM93.4778 11.3416L95.6926 7.71658H99.1936L95.511 13.2869L99.3655 19.1013H95.8547L93.4778 15.201L91.0901 19.1013H87.5901L91.4241 13.2869L87.7825 7.71658H91.2825L93.4778 11.3416ZM114.489 19.1013H113.396L111.382 13.8367H105.171L103.117 19.1013H102.055L107.872 4.16287H108.823L114.489 19.1013ZM121.065 8.72537C120.235 8.72537 119.544 8.90859 118.99 9.27518C118.444 9.63492 118.037 10.1641 117.767 10.8631C117.504 11.5555 117.368 12.4043 117.362 13.409V13.5818C117.362 14.6612 117.493 15.5614 117.756 16.281C118.026 16.9938 118.427 17.5267 118.96 17.8797C119.5 18.2326 120.167 18.4089 120.963 18.409C121.745 18.409 122.407 18.2158 122.947 17.8289C123.486 17.4419 123.897 16.8814 124.18 16.1482C124.463 15.415 124.606 14.5257 124.606 13.4803C124.606 11.9257 124.309 10.7441 123.715 9.93631C123.128 9.12864 122.245 8.72541 121.065 8.72537ZM133.406 8.72537C132.577 8.72538 131.885 8.9086 131.332 9.27518C130.786 9.63493 130.378 10.1642 130.109 10.8631C129.846 11.5555 129.711 12.4043 129.704 13.409V13.5818C129.704 14.6612 129.836 15.5614 130.099 16.281C130.369 16.9936 130.769 17.5267 131.302 17.8797C131.841 18.2326 132.509 18.4089 133.305 18.409C134.087 18.409 134.749 18.2158 135.288 17.8289C135.828 17.4419 136.239 16.8814 136.523 16.1482C136.806 15.4151 136.948 14.5256 136.948 13.4803C136.947 11.9257 136.65 10.7441 136.057 9.93631C135.47 9.12868 134.587 8.72537 133.406 8.72537ZM50.4114 10.0076C49.5953 10.0076 49.002 10.2898 48.6311 10.8533C48.267 11.4167 48.0843 12.2617 48.0842 13.3885C48.0842 14.135 48.1656 14.7632 48.3274 15.2722C48.4893 15.7814 48.7422 16.1656 49.0862 16.4236C49.4301 16.6815 49.8789 16.8103 50.4319 16.8103C50.978 16.8103 51.4199 16.6815 51.7571 16.4236C52.101 16.1656 52.35 15.7814 52.5051 15.2722C52.6669 14.7631 52.7483 14.1351 52.7483 13.3885C52.7483 12.6351 52.6669 12.0109 52.5051 11.5154C52.35 11.0131 52.101 10.6357 51.7571 10.3846C51.4131 10.1334 50.9644 10.0076 50.4114 10.0076ZM108.318 5.33377C108.25 5.57124 108.176 5.80919 108.095 6.04666C108.014 6.28418 107.936 6.51509 107.862 6.73904C107.787 6.9562 107.717 7.15341 107.65 7.32986L105.525 12.8904H111.049L109.005 7.30936C108.951 7.16683 108.884 6.98344 108.803 6.75955C108.729 6.53557 108.647 6.29778 108.56 6.04666C108.479 5.7956 108.399 5.5577 108.318 5.33377ZM81.55 9.71268C80.95 9.71268 80.4508 9.90607 80.053 10.2928C79.6618 10.6797 79.435 11.2878 79.3743 12.116H83.7043C83.6976 11.6544 83.6133 11.2434 83.4514 10.8836C83.2963 10.5239 83.0603 10.2385 82.7434 10.0281C82.4333 9.81777 82.0354 9.71272 81.55 9.71268Z" fill="black"></path>
<path d="M19.7603 9.693C20.2948 9.53675 20.8601 9.51748 21.4039 9.63733C21.9478 9.75721 22.4528 10.012 22.8717 10.3785C23.2905 10.7451 23.61 11.2115 23.8004 11.734C23.9907 12.2567 24.0457 12.8192 23.9605 13.3688C23.8754 13.9183 23.6527 14.4378 23.3131 14.8785C22.9734 15.3193 22.5274 15.6672 22.0172 15.8903C21.507 16.1132 20.9488 16.2047 20.3941 16.1549L20.4107 16.1705C19.8431 16.1227 19.272 16.1998 18.7369 16.3951C18.2018 16.5905 17.716 16.9002 17.3131 17.3024C16.9102 17.7047 16.5996 18.19 16.4039 18.7242C16.2083 19.2585 16.1313 19.8294 16.1793 20.3961L16.1627 20.3795C16.2265 21.0576 16.0789 21.7392 15.7408 22.3307C15.4027 22.922 14.8901 23.3952 14.273 23.6852C13.656 23.9749 12.9644 24.0677 12.2926 23.9508C11.6206 23.8339 11.0007 23.5122 10.5182 23.0309C10.0358 22.5496 9.71408 21.9311 9.59628 21.2604C9.47867 20.5897 9.5703 19.8992 9.85995 19.2828C10.1497 18.6664 10.6234 18.1542 11.2154 17.816C11.8075 17.4779 12.4895 17.3302 13.1685 17.3932L13.1529 17.3766C13.7205 17.4244 14.2918 17.3483 14.8267 17.153C15.3618 16.9577 15.8477 16.6478 16.2506 16.2457C16.6534 15.8434 16.9641 15.3581 17.1598 14.8239C17.3555 14.2895 17.4323 13.7189 17.3844 13.152L17.4 13.1686C17.3534 12.687 17.4138 12.2005 17.5767 11.7448C17.7397 11.2892 18.0017 10.875 18.3434 10.5319H18.3463C18.7394 10.1379 19.2259 9.8494 19.7603 9.693ZM18.3932 1.16175C19.0103 0.872155 19.7019 0.78 20.3736 0.897097C21.0457 1.0143 21.6657 1.33537 22.148 1.81702C22.6305 2.29868 22.9525 2.91751 23.0699 3.5885C23.1872 4.25943 23.0945 4.95068 22.8043 5.56702C22.5141 6.18326 22.0402 6.69511 21.4478 7.03284C20.8555 7.37055 20.1729 7.5174 19.4937 7.45374L19.5103 7.47034C18.9427 7.42253 18.3715 7.49864 17.8365 7.69397C17.3016 7.88923 16.8156 8.19913 16.4127 8.6012C16.0099 9.00349 15.6992 9.48886 15.5035 10.0231C15.3079 10.5574 15.231 11.128 15.2789 11.6949L15.2623 11.6783C15.3105 12.1602 15.2506 12.6471 15.0875 13.1032C14.9244 13.5592 14.6619 13.9737 14.3189 14.316C13.9759 14.6583 13.5609 14.9201 13.1041 15.0826C12.6473 15.2452 12.1598 15.304 11.6773 15.2555L11.6939 15.2721C11.1263 15.2243 10.5551 15.3004 10.0201 15.4957C9.48501 15.691 8.99825 16.0007 8.5953 16.403C8.19254 16.8052 7.8827 17.2907 7.6871 17.8248C7.49141 18.3592 7.41455 18.9298 7.46249 19.4967L7.44589 19.4801C7.5097 20.1582 7.36217 20.8398 7.02401 21.4313C6.68574 22.0228 6.17263 22.4959 5.55526 22.7858C4.9379 23.0756 4.24585 23.1686 3.57382 23.0514C2.90185 22.9342 2.28274 22.6122 1.80038 22.1305C1.3181 21.6489 0.995924 21.0309 0.878507 20.36C0.761112 19.689 0.853848 18.9979 1.14413 18.3815C1.43439 17.7651 1.90821 17.2534 2.50058 16.9157C3.09302 16.5779 3.77546 16.4301 4.45468 16.4938L4.43808 16.4782C5.00582 16.5259 5.57782 16.4489 6.11288 16.2535C6.64779 16.058 7.13391 15.7485 7.53671 15.3463C7.93948 14.9441 8.24915 14.4586 8.44491 13.9244C8.64053 13.3903 8.71722 12.8202 8.66952 12.2535L8.68612 12.2692C8.63791 11.7873 8.69689 11.3004 8.85995 10.8444C9.02312 10.3884 9.28646 9.97468 9.62948 9.63245C9.97257 9.29016 10.3875 9.02831 10.8443 8.86585C11.3012 8.7033 11.7885 8.64351 12.2711 8.69202L12.2545 8.67542C12.8223 8.72339 13.394 8.64707 13.9293 8.45178C14.4643 8.25652 14.9502 7.94665 15.3531 7.54456C15.7559 7.14227 16.0667 6.65695 16.2623 6.12268C16.4579 5.58842 16.5339 5.01763 16.4859 4.45081L16.5025 4.46741C16.4387 3.78926 16.5861 3.10774 16.9244 2.51624C17.2627 1.92483 17.7758 1.45153 18.3932 1.16175ZM9.72616 0.314089C10.3432 0.0244609 11.0349 -0.067718 11.7066 0.0494409C12.3784 0.166647 12.9979 0.487882 13.4801 0.969363C13.9622 1.45084 14.2846 2.06914 14.4019 2.73987C14.5193 3.41056 14.4264 4.10123 14.1363 4.71741C13.8462 5.33353 13.3729 5.8455 12.7809 6.18323C12.1887 6.52097 11.5057 6.66765 10.8267 6.60413L10.8443 6.62073C10.2764 6.5726 9.70488 6.64909 9.16952 6.84436C8.63415 7.03963 8.14785 7.34928 7.74472 7.75159C7.34167 8.15389 7.03132 8.63907 6.83554 9.17346C6.63978 9.70781 6.56303 10.2784 6.61093 10.8453L6.59433 10.8297C6.64126 11.3112 6.58037 11.797 6.41757 12.2526C6.25475 12.7082 5.99354 13.1224 5.65194 13.4655H5.6539C5.26085 13.8595 4.7743 14.1479 4.23984 14.3043C3.70544 14.4606 3.14006 14.4807 2.59628 14.361C2.05237 14.2411 1.54744 13.9854 1.12851 13.6188C0.709577 13.2523 0.390245 12.786 0.199796 12.2633C0.00944261 11.7409 -0.0463362 11.179 0.0386634 10.6295C0.123737 10.08 0.346577 9.5605 0.686124 9.11975C1.02567 8.67895 1.47091 8.33019 1.98105 8.10706C2.49125 7.88393 3.05029 7.7937 3.60507 7.84339L3.58847 7.82678C4.15624 7.87467 4.72814 7.79856 5.26327 7.60315C5.79826 7.40781 6.28428 7.09811 6.6871 6.69593C7.08991 6.29374 7.39959 5.8082 7.5953 5.27405C7.79098 4.73981 7.86783 4.169 7.81991 3.60218L7.83651 3.6178C7.77294 2.93995 7.92012 2.25877 8.25839 1.66761C8.59661 1.0765 9.10906 0.603704 9.72616 0.314089Z" fill="url(#paint0_linear_16019_19067)"></path>
<defs>
<linearGradient id="paint0_linear_16019_19067" x1="5.52843" y1="5.41366" x2="19.3923" y2="19.2773" gradientUnits="userSpaceOnUse">
<stop stop-color="#407CFF"></stop>
<stop offset="0.50184" stop-color="#CC79FF"></stop>
<stop offset="1" stop-color="#FFA03B"></stop>
</linearGradient>
</defs>
</svg>